<?xml version="1.0" encoding="utf-8"?>
<!-- Generator: Adobe Illustrator 24.0.1, SVG Export Plug-In . SVG Version: 6.00 Build 0)  -->
<svg version="1.1" id="Layer_1" xmlns="http://www.w3.org/2000/svg" xmlns:xlink="http://www.w3.org/1999/xlink" x="0px" y="0px"
	 viewBox="0 0 300 38.25" style="enable-background:new 0 0 300 38.25;" xml:space="preserve">
<style type="text/css">
	.st0{fill:#FFFFFF;}
</style>
<text transform="matrix(1 0 0 1 9.5182 -225.2326)" style="display:none; font-family:'NEONCLUBMUSIC-Medium'; font-size:47.0892px; letter-spacing:-2;">NESTLOOM</text>
<g>
	<path class="st0" d="M38.04,36.52c0,0.92-0.76,1.63-1.68,1.63s-1.63-0.71-1.63-1.63l-0.05-17.47c0-8.56-7.03-15.64-15.64-15.64
		S3.41,10.49,3.41,19.05L3.36,36.46c0,0.87-0.71,1.68-1.68,1.68S0,37.33,0,36.46l0.05-17.42c0-10.44,8.51-19,19-19
		c10.44,0,19,8.56,19,19V36.52z"/>
	<path class="st0" d="M73.75,36.46c0,0.87-0.81,1.68-1.68,1.68H60.71c-10.54,0-19.05-8.56-19.05-19.05C41.66,8.56,50.17,0,60.71,0
		h11.36c0.87,0,1.68,0.81,1.68,1.68c0,0.92-0.81,1.68-1.68,1.68H60.71c-8.15,0-14.92,6.06-15.64,14.11H65.6
		c0.92,0,1.68,0.76,1.68,1.68s-0.76,1.68-1.68,1.68H45.07c0.76,7.94,7.49,13.95,15.64,14c0.05,0,11.36-0.05,11.36-0.05
		C72.93,34.78,73.75,35.55,73.75,36.46z"/>
	<path class="st0" d="M79.58,17.72c-1.83-1.93-3-4.58-3-7.23c0-5.75,4.63-10.39,10.39-10.39H105c0.92,0,1.73,0.81,1.73,1.63
		c0,0.92-0.81,1.68-1.73,1.68H86.97c-3.62,0-7.03,3.06-7.03,7.08c0,3.82,3.26,6.77,7.08,7.03h9.27c4.18,0.1,6.62,2.29,7.38,3.11
		c1.83,1.94,3,4.58,3,7.23c0,5.75-4.63,10.39-10.39,10.39H78.21c-0.87,0-1.68-0.82-1.68-1.63c0-0.92,0.81-1.68,1.68-1.68h18.08
		c3.62,0,7.03-3.06,7.03-7.08c0-3.87-3.26-6.77-7.08-7.03h-9.27C82.79,20.73,80.35,18.54,79.58,17.72z"/>
	<path class="st0" d="M145.96,19.1c0,0.97-0.76,1.63-1.68,1.63c-0.92,0-1.63-0.66-1.68-1.63c0-8.2-6.06-14.82-14.01-15.58v33
		c0,0.92-0.66,1.63-1.63,1.63c-0.87,0-1.68-0.71-1.68-1.63v-33c-8,0.76-13.95,7.39-14.01,15.53c0,0.92-0.71,1.68-1.68,1.68
		c-0.97,0-1.73-0.71-1.63-1.68c0-10.44,8.4-18.9,18.79-19c10.8,0.15,19.2,8.71,19.2,19V19.1z"/>
	<path class="st0" d="M167.77,38.15c-10.44,0-18.89-8.45-18.89-18.84l-0.05-17.62c0-0.92,0.71-1.63,1.68-1.63
		c0.87,0,1.68,0.71,1.68,1.63l0.05,17.62c0,8.51,6.98,15.53,15.53,15.53h10.54c0.92,0,1.68,0.76,1.68,1.68
		c0,0.81-0.76,1.63-1.68,1.63H167.77z"/>
	<path class="st0" d="M178.73,19.1c0-10.49,8.56-19.05,19.05-19.05c10.54,0,19.05,8.56,19.05,19.05s-8.5,19.05-19.05,19.05
		C187.28,38.15,178.73,29.59,178.73,19.1z M182.09,19.1c0,8.61,7.08,15.74,15.69,15.74c8.66,0,15.74-7.13,15.74-15.74
		s-7.08-15.74-15.74-15.74C189.17,3.36,182.09,10.49,182.09,19.1z"/>
	<path class="st0" d="M219.73,19.1c0-10.49,8.56-19.05,19.05-19.05c10.54,0,19.05,8.56,19.05,19.05s-8.5,19.05-19.05,19.05
		C228.28,38.15,219.73,29.59,219.73,19.1z M223.09,19.1c0,8.61,7.08,15.74,15.69,15.74c8.66,0,15.74-7.13,15.74-15.74
		s-7.08-15.74-15.74-15.74C230.17,3.36,223.09,10.49,223.09,19.1z"/>
	<path class="st0" d="M261.8,10.44c0-5.76,4.63-10.39,10.39-10.39c2.75,0,5.3,1.02,7.28,2.95c0.61,0.61,1.02,1.07,1.43,1.78
		c0.41-0.61,0.97-1.32,1.48-1.78c1.94-1.94,4.48-2.95,7.28-2.95c5.76,0,10.34,4.63,10.34,10.39v26.08c0,0.87-0.76,1.68-1.68,1.68
		c-0.92,0-1.63-0.82-1.63-1.68V10.34c-0.05-3.82-3.21-6.98-7.03-6.98c-3.82,0-7.03,3.21-7.08,7.13c-0.05,0-0.05,16.14-0.05,16.14
		c0,0.97-0.66,1.63-1.63,1.63c-0.87,0-1.68-0.66-1.68-1.63V10.29c-0.05-3.77-3.21-6.93-7.03-6.93c-3.87,0-7.03,3.21-7.03,7.08v26.08
		c0,0.87-0.81,1.68-1.73,1.68s-1.63-0.82-1.63-1.68V10.44z"/>
</g>
</svg>
